<?xml version="1.0" standalone="no"?>
<!DOCTYPE svg PUBLIC "-//W3C//DTD SVG 20010904//EN"
 "http://www.w3.org/TR/2001/REC-SVG-20010904/DTD/svg10.dtd">
<svg version="1.0" xmlns="http://www.w3.org/2000/svg"
 width="595.000000pt" height="595.000000pt" viewBox="0 0 595.000000 595.000000"
 preserveAspectRatio="xMidYMid meet">
<metadata>
Created by potrace 1.11, written by Peter Selinger 2001-2013
</metadata>
<g transform="translate(0.000000,595.000000) scale(0.100000,-0.100000)"
fill="#000000" stroke="none">
<path d="M3212 5839 c-40 -10 -107 -34 -149 -54 -88 -41 -223 -134 -251 -172
l-19 -26 -74 18 c-105 27 -294 25 -409 -3 -137 -34 -257 -87 -316 -139 -12
-10 -43 -36 -70 -57 -117 -95 -209 -236 -255 -391 -27 -91 -34 -277 -13 -364
24 -104 50 -141 142 -204 56 -38 98 -53 169 -60 31 -3 53 -14 83 -41 22 -20
70 -50 106 -67 64 -29 66 -31 61 -62 -4 -33 17 -97 32 -97 5 0 8 -15 7 -32 -2
-18 2 -49 9 -68 6 -19 10 -48 9 -64 -2 -17 4 -45 13 -63 14 -30 25 -37 61 -36
15 1 16 -13 1 -22 -5 -4 -35 -46 -66 -93 -30 -48 -74 -109 -97 -136 -40 -48
-47 -78 -25 -101 6 -6 -10 -26 -43 -56 -51 -45 -53 -48 -42 -77 10 -27 7 -38
-32 -112 -24 -44 -64 -107 -89 -138 -30 -40 -43 -65 -40 -80 3 -20 -98 -234
-129 -272 -7 -8 -25 -36 -39 -62 -35 -61 -144 -198 -158 -198 -14 0 -146 -92
-186 -130 -58 -55 -37 -111 52 -140 21 -7 35 -19 39 -34 14 -56 96 -77 151
-40 l36 24 9 -24 c4 -13 21 -33 36 -45 33 -26 88 -23 109 5 13 19 38 95 38
118 0 9 10 10 39 2 32 -9 40 -7 51 8 18 25 20 100 3 161 l-13 50 66 74 c117
132 131 146 131 132 0 -7 -18 -59 -39 -115 -36 -92 -86 -249 -92 -286 -1 -8 1
-32 6 -53 5 -29 2 -54 -15 -105 -21 -60 -23 -84 -22 -242 l1 -175 26 -22 c14
-13 33 -23 42 -23 11 0 14 -7 10 -23 -3 -12 -8 -32 -11 -44 -17 -74 -109 -212
-165 -248 -20 -12 -53 -37 -75 -54 -42 -34 -136 -65 -231 -77 -33 -4 -63 -7
-66 -6 -4 0 -18 3 -33 6 -56 10 -92 30 -123 67 -29 37 -31 44 -38 154 -7 114
-7 116 19 154 30 43 124 96 164 93 56 -5 71 -52 36 -109 -13 -21 -24 -48 -24
-60 0 -50 107 -77 163 -40 46 30 62 73 62 167 -1 93 -8 113 -74 183 -51 55
-118 86 -189 89 -49 2 -70 -3 -126 -31 -77 -38 -166 -116 -203 -178 -63 -107
-98 -290 -72 -375 6 -18 17 -54 24 -80 17 -60 50 -129 76 -159 12 -13 26 -31
33 -39 13 -18 75 -58 126 -81 32 -14 77 -26 135 -35 48 -8 169 -4 208 7 23 6
53 13 67 15 14 3 34 8 45 13 11 5 45 19 75 31 89 36 238 111 251 126 6 8 15
14 19 14 4 0 28 -41 54 -90 26 -50 73 -134 105 -188 80 -136 72 -103 85 -351
5 -90 -7 -130 -48 -168 -44 -40 -56 -63 -62 -117 -5 -35 -2 -48 18 -71 25 -29
76 -39 128 -25 16 4 38 0 61 -12 33 -17 39 -17 72 -3 19 8 38 19 41 24 4 5 19
9 34 9 101 -1 138 88 88 211 -21 51 -23 72 -21 167 4 174 65 325 178 446 22
24 41 32 67 30 3 0 52 -3 108 -6 108 -5 122 -9 122 -32 0 -8 3 -14 8 -14 27 0
79 -163 76 -239 -1 -31 -3 -104 -4 -164 -2 -95 -5 -111 -26 -140 -44 -61 -61
-127 -43 -173 13 -37 69 -69 119 -69 25 -1 54 -6 65 -11 16 -9 100 -12 100 -4
0 1 10 3 23 6 43 8 100 43 130 82 25 32 30 46 27 78 -5 47 -17 80 -44 114 -11
14 -22 43 -25 65 -5 40 -19 191 -19 211 0 6 19 51 42 100 24 49 50 105 59 124
9 19 24 46 33 60 9 14 24 54 33 90 l18 65 74 39 c59 32 74 44 74 62 0 13 4 25
9 28 9 6 25 65 36 131 3 17 7 39 9 50 2 11 7 71 11 134 4 63 9 124 11 135 6
24 5 301 0 361 -5 44 -14 116 -21 155 -3 14 -7 39 -10 55 -4 28 -17 96 -30
155 -17 83 -25 131 -31 175 -3 28 -8 53 -10 56 -2 4 5 28 17 53 15 35 25 46
37 42 28 -9 116 -28 135 -30 17 -2 118 -83 198 -158 l39 -37 -9 -63 c-16 -121
-3 -182 52 -231 11 -9 25 -17 31 -18 35 -3 73 5 89 19 29 26 77 138 84 194 5
39 14 60 34 81 15 15 31 37 34 50 4 12 16 29 28 38 16 13 20 27 19 62 -1 29 3
49 13 57 20 17 19 38 -5 85 -25 49 -29 81 -35 251 -4 149 -12 131 91 226 108
99 165 197 166 287 1 75 -15 186 -32 226 -44 103 -119 154 -238 159 -104 5
-164 -17 -237 -90 -51 -51 -62 -73 -81 -156 -2 -10 -6 -28 -10 -40 -3 -13 -7
-64 -9 -114 -5 -107 8 -161 59 -246 34 -57 34 -59 31 -159 -5 -132 -10 -154
-42 -168 -25 -12 -29 -9 -67 36 -81 96 -132 143 -176 158 -55 20 -70 32 -70
60 0 22 -56 75 -78 75 -6 0 -12 4 -14 9 -1 5 -30 34 -64 63 -55 50 -60 57 -48
73 25 33 16 53 -38 88 -29 19 -64 46 -77 61 -14 14 -29 26 -34 26 -13 0 -76
73 -77 88 0 7 16 34 36 60 45 60 102 176 110 228 3 21 9 44 12 49 4 6 10 78
13 160 3 83 8 158 11 169 2 10 -3 34 -13 52 -17 34 -17 35 10 62 42 42 102
157 122 235 29 108 12 268 -37 354 -24 42 -92 104 -128 117 -18 6 -16 10 19
44 54 53 87 131 91 218 4 105 -25 175 -103 244 -129 113 -336 162 -511 119z"/>
</g>
</svg>
